<svg xmlns="http://www.w3.org/2000/svg" viewBox="0 0 1440 1440"><defs><linearGradient id="a" x1="0" x2="1" y1="0" y2="0" gradientTransform="matrix(0 1138.287 -1138.287 0 720 150.856)" gradientUnits="userSpaceOnUse" spreadMethod="pad"><stop offset="0" stop-color="#166c8d"/><stop offset="1" stop-color="#011a36"/></linearGradient></defs><circle cx="720" cy="720" r="720" fill="#fffee5" style="-inkscape-stroke:none"/><g fill="url(#a)" stroke-width="1.333"><path d="M647.243 1216.387c0 40.182 32.574 72.756 72.757 72.756 40.181 0 72.757-32.574 72.757-72.756 0-40.183-32.576-72.756-72.757-72.756-40.183 0-72.757 32.573-72.757 72.756M852.988 1201.264c0 11.732 9.51 21.243 21.243 21.243 11.733 0 21.244-9.511 21.244-21.243 0-11.733-9.511-21.244-21.244-21.244-11.732 0-21.243 9.51-21.243 21.244M544.525 1201.264c0 11.732 9.511 21.243 21.244 21.243 11.732 0 21.243-9.511 21.243-21.243 0-11.733-9.51-21.244-21.243-21.244-11.733 0-21.244 9.51-21.244 21.244M937.424 1186.141c0 9.146 7.413 16.559 16.559 16.559s16.56-7.413 16.56-16.559-7.414-16.56-16.56-16.56c-9.146 0-16.559 7.414-16.559 16.56M469.457 1186.141c0 9.146 7.414 16.559 16.559 16.559 9.145 0 16.56-7.413 16.56-16.559s-7.415-16.56-16.56-16.56-16.559 7.414-16.559 16.56M471.196 810.839c-73.745.021-114.43 86.349-67.681 143.202 13.389 16.266 32.152 27.387 53.649 30.871.057.008 511.667.716 511.667.716 1.228 0 2.424.127 3.594.324.05-.003.099-.003.147-.007 10.056 1.636 17.939 11.012 17.792 21.204l.001 4.973c.081 8.52-5.361 16.659-13.241 19.88h-.04a21.472 21.472 0 0 1-8.254 1.65s-509.034-1.054-511.741-1.374c-32.739-3.732-60.283-25.685-71.761-55.841-2.512 10.117-1.482 22.719-1.72 33.2 0 24.188 9.8 46.081 25.653 61.948 15.855 15.841 37.747 25.655 61.935 25.655h497.608c73.745-.023 114.429-86.35 67.681-143.203-13.39-16.265-32.152-27.387-53.65-30.87-.057-.01-511.666-.717-511.666-.717-1.228 0-2.424-.128-3.596-.324-.048.003-.097.003-.145.005-9.35-1.542-16.97-9.776-17.694-19.237-.194-1.399-.058-5.484-.1-6.937-.081-8.522 5.363-16.66 13.242-19.882h.013c.008 0 .017 0 .027-.003a21.472 21.472 0 0 1 8.253-1.65s509.035 1.053 511.741 1.373c32.739 3.73 60.283 25.685 71.762 55.84 2.512-10.117 1.481-22.719 1.72-33.2 0-24.187-9.8-46.08-25.654-61.948-15.854-15.84-37.746-25.653-61.934-25.653zM471.207 591.24c-48.38 0-87.599 39.219-87.599 87.597 0 48.38 39.219 87.599 87.599 87.599h497.586c48.38 0 87.599-39.219 87.599-87.599 0-48.378-39.219-87.597-87.599-87.597zm-21.572 90.084v-4.973c0-11.891 9.641-21.531 21.532-21.531h497.666c11.892 0 21.532 9.64 21.532 21.53v4.974c0 11.89-9.64 21.532-21.532 21.532H471.167c-11.891 0-21.532-9.641-21.532-21.532M909.737 484.664c0 32.147 26.059 58.205 58.204 58.205 32.146 0 58.206-26.058 58.206-58.205 0-32.144-26.06-58.203-58.206-58.203-32.145 0-58.204 26.059-58.204 58.203M413.853 484.664c0 32.147 26.06 58.205 58.206 58.205 32.145 0 58.204-26.058 58.204-58.205 0-32.144-26.059-58.203-58.204-58.203-32.146 0-58.206 26.059-58.206 58.203M523.993 346.863c0 108.252 87.755 196.006 196.007 196.006 108.252 0 196.007-87.754 196.007-196.006 0-108.251-87.755-196.006-196.007-196.006-108.252 0-196.007 87.755-196.007 196.006m58.915 0c0-75.714 61.379-137.091 137.092-137.091 75.713 0 137.092 61.377 137.092 137.09 0 75.714-61.379 137.093-137.092 137.093-75.713 0-137.092-61.379-137.092-137.092"/><path d="M661.795 346.863c0 32.145 26.06 58.204 58.205 58.204 32.145 0 58.205-26.059 58.205-58.204 0-32.144-26.06-58.204-58.205-58.204-32.145 0-58.205 26.06-58.205 58.204"/></g></svg>