<svg xmlns="http://www.w3.org/2000/svg" viewBox="0 0 1440 1440"><defs><linearGradient id="a" x1="0" x2="1" y1="0" y2="0" gradientTransform="matrix(0 1440 -1440 0 720 0)" gradientUnits="userSpaceOnUse" spreadMethod="pad"><stop offset="0" stop-color="#166c8d"/><stop offset="1" stop-color="#011a36"/></linearGradient></defs><path fill="url(#a)" d="M0 1439.5h1440V0H0Z"/><g fill="#fffee5"><path d="M895.475 1201.264c0 11.732-9.51 21.244-21.244 21.244-11.732 0-21.242-9.512-21.242-21.244s9.51-21.244 21.242-21.244c11.734 0 21.244 9.512 21.244 21.244M587.012 1201.264c0 11.732-9.51 21.244-21.244 21.244-11.732 0-21.243-9.512-21.243-21.244s9.511-21.244 21.243-21.244c11.733 0 21.244 9.512 21.244 21.244M970.543 1186.14c0 9.146-7.413 16.56-16.559 16.56-9.145 0-16.56-7.414-16.56-16.56 0-9.145 7.415-16.558 16.56-16.558 9.146 0 16.559 7.413 16.559 16.559M502.575 1186.14c0 9.146-7.413 16.56-16.558 16.56-9.146 0-16.56-7.414-16.56-16.56 0-9.145 7.414-16.558 16.56-16.558 9.145 0 16.558 7.413 16.558 16.559M792.757 1216.387c0 40.183-32.575 72.757-72.758 72.757-40.18 0-72.756-32.575-72.756-72.757 0-40.183 32.575-72.757 72.756-72.757 40.183 0 72.758 32.574 72.758 72.757M449.636 895.96c-.082-8.52 5.36-16.658 13.24-19.88h.013c.009 0 .019-.003.027-.004a21.481 21.481 0 0 1 8.253-1.65s509.035 1.054 511.741 1.374c32.739 3.73 60.284 25.686 71.762 55.84 2.513-10.116 1.48-22.717 1.72-33.2 0-24.186-9.8-46.081-25.654-61.948-15.853-15.84-37.746-25.653-61.934-25.653H471.196c-73.746.021-114.431 86.35-67.682 143.203 13.39 16.265 32.152 27.386 53.65 30.869.058.009 511.666.717 511.666.717 1.228 0 2.424.127 3.596.324l.147-.007c10.056 1.635 17.937 11.012 17.79 21.203.002 0 .002 4.973.002 4.973.08 8.52-5.362 16.66-13.242 19.882h-.04a21.471 21.471 0 0 1-8.253 1.65s-509.035-1.053-511.741-1.373c-32.738-3.73-60.283-25.685-71.762-55.841-2.512 10.117-1.481 22.718-1.72 33.2 0 24.188 9.8 46.08 25.654 61.948 15.854 15.84 37.748 25.653 61.934 25.653h497.608c73.747-.021 114.431-86.348 67.682-143.201-13.39-16.266-32.152-27.388-53.648-30.871-.06-.01-511.668-.717-511.668-.717-1.228 0-2.424-.126-3.595-.323-.05 0-.099.003-.147.005-9.35-1.544-16.97-9.776-17.692-19.237-.196-1.4-.06-5.484-.1-6.94M990.365 681.323c0 11.892-9.64 21.532-21.532 21.532H471.168c-11.892 0-21.532-9.64-21.532-21.532v-4.972c0-11.892 9.64-21.532 21.532-21.532h497.665c11.892 0 21.532 9.64 21.532 21.532zm-21.57-90.084H471.207c-48.38 0-87.6 39.22-87.6 87.598 0 48.38 39.22 87.598 87.6 87.598h497.588c48.378 0 87.597-39.219 87.597-87.597v-.001c0-48.379-39.219-87.598-87.597-87.598M1026.146 484.665c0 32.145-26.059 58.204-58.204 58.204-32.147 0-58.205-26.059-58.205-58.204 0-32.145 26.058-58.204 58.205-58.204 32.145 0 58.204 26.059 58.204 58.204M530.263 484.665c0 32.145-26.058 58.204-58.204 58.204s-58.205-26.059-58.205-58.204c0-32.145 26.059-58.204 58.205-58.204s58.204 26.059 58.204 58.204M720 483.954c-75.713 0-137.092-61.377-137.092-137.092 0-75.713 61.379-137.09 137.092-137.09 75.713 0 137.092 61.377 137.092 137.09 0 75.715-61.379 137.092-137.092 137.092m0-333.098c-108.252 0-196.007 87.756-196.007 196.006 0 108.252 87.755 196.007 196.007 196.007 108.252 0 196.007-87.755 196.007-196.007 0-108.25-87.755-196.006-196.007-196.006"/><path d="M778.205 346.863c0 32.145-26.06 58.204-58.204 58.204-32.147 0-58.206-26.059-58.206-58.204 0-32.145 26.059-58.204 58.206-58.204 32.145 0 58.204 26.059 58.204 58.204"/></g></svg>