<svg xmlns="http://www.w3.org/2000/svg" viewBox="0 0 1024 1024"><g fill="#fff"><defs><marker class="svg-src" id="a" markerHeight="1" markerWidth="1" orient="auto-start-reverse" overflow="visible" preserveAspectRatio="xMidYMid" refX="0" refY="0" viewBox="0 0 1 1"><path id="reuse-0" fill="context-stroke" fill-rule="evenodd" stroke="context-stroke" stroke-width=".5pt" d="M2.885 0-1.44 2.5v-5Z"/></marker></defs><g stroke-width="10" font-family="Satoshi" font-size="42.667" font-weight="400" letter-spacing="2.56" text-anchor="end"><text x="511.664" y="1015.467" stroke-width="10" font-family="Satoshi" font-size="32" font-weight="400" letter-spacing="2.56" text-anchor="end"><tspan text-anchor="middle">Prédisposition</tspan></text><text x="332.395" y="272.78" stroke-width="10" font-family="Satoshi" font-size="32" font-weight="400" letter-spacing="2.56" text-anchor="end" transform="rotate(-90 143.274 392.727)"><tspan x="332.395" y="272.78">Rétroaction</tspan></text><text x="332.395" y="272.78" stroke-width="10" font-family="Satoshi" font-size="32" font-weight="400" letter-spacing="2.56" text-anchor="end" transform="rotate(90 623.673 649.78)"><tspan x="332.395" y="272.78">Rétroaction</tspan></text><g font-family="Gilroy" font-weight="800" text-anchor="middle"><text x="512.64" y="30.891"><tspan x="513.92" y="30.891" >Société répressive autoritaire</tspan></text><text x="512" y="151.836"><tspan >Organisme cuirassé</tspan></text><text x="513.024" y="272.78"><tspan x="513.024" y="272.78"><tspan >Perte de contact avec</tspan></tspan><tspan x="514.304" y="315.788"><tspan >l'être et la nature</tspan></tspan></text><text x="513.173" y="439.078"><tspan >Vie sociale névrotique et antinaturelle</tspan></text><text x="511.467" y="560.023"><tspan x="511.467" y="560.023"><tspan><tspan >Altérations du</tspan></tspan></tspan><tspan x="512.747" y="603.031"><tspan><tspan >métabolisme énergétique</tspan></tspan></tspan></text><text x="512.533" y="842.472"><tspan x="512.533" y="842.472"><tspan><tspan >Prédisposition à</tspan></tspan></tspan><tspan x="513.813" y="885.48"><tspan><tspan >maladie externe</tspan></tspan></tspan></text><text x="141.099" y="720.456"><tspan x="141.099" y="720.456"><tspan >Dans l'utérus:</tspan></tspan><tspan x="141.099" y="763.464"><tspan >action sur</tspan></tspan><tspan x="142.379" y="806.472"><tspan >le fœtus</tspan></tspan></text><text x="920.533" y="760.008"><tspan >Biopathies</tspan></text></g></g><g fill="none" stroke="#8bb6c6" stroke-width="10"><path marker-end="url(#a)" d="M512 45.424V79.15"/><path marker-end="url(#a)" d="M512 162.653v33.726"/><path marker-end="url(#a)" d="M512 328.951v33.726"/><path marker-end="url(#a)" d="M512 449.896v33.726"/><path marker-end="url(#a)" d="M512.001 620.841v133.726"/><path marker-end="url(#a)" d="m311.492 622.445-30.919 30.919"/><path marker-end="url(#a)" d="m722.34 622.445 30.918 30.919"/><g stroke-width="5"><path marker-end="url(#a)" d="M141.739 827.07c0 196.93 739.349 196.93 739.349 4.511"/><path marker-end="url(#a)" d="M205.27 528.876C0 473.875 0 235.973 205.27 180.972"/><path marker-end="url(#a)" d="M818.731 371.291C1024 316.29 1024 118.388 818.731 63.387"/></g></g></g></svg>